# xmcd
#
# Track frame offsets: 
#        150
#        14510
#        35777
#        62547
#        85270
#        110380
#        138997
#        164412
#        187577
#        204137
#        222020
#        244952
#
# Disc length: 3531 seconds
#
# Revision: 1
# Processed by: cddbd v1.5.2PL0 Copyright (c) Steve Scherf et al.
# Submitted via: ExactAudioCopy v0.99pb4
#
DISCID=9c0dc90c
DTITLE=Various Artist - Pata Pata (Salsa and Merengue)
DYEAR=1995
DGENRE=Salsa
TTITLE0=Tito Puente - Pata Pata
TTITLE1=Celia Cruz and Ray Barretto - Ritmo En El Corazon
TTITLE2=Mongo Santamaria - Mambomongo
TTITLE3=Charlie Palmieri - Melao Para El Sabo
TTITLE4=Johnny Pacheco and Celia Cruz - Historia De Una Rumba
TTITLE5=Pete Rodriguez - Ya Llego Descargo
TTITLE6=Joe Cuba Sextet - El Pito (I'll Never Go Back To Georgia)
TTITLE7=Sonora Poncena - Agua A La Candela
TTITLE8=Celia Cruz and Tito Puente - Pachito Eche
TTITLE9=Machito - Para Ti
TTITLE10=Ray Barretto - Acid
TTITLE11=Willie Colon - Abueleta
EXTD=YEAR: 1995
EXTT0=
EXTT1=
EXTT2=
EXTT3=
EXTT4=
EXTT5=
EXTT6=
EXTT7=
EXTT8=
EXTT9=
EXTT10=
EXTT11=
PLAYORDER=
